<?xml version="1.0" encoding="UTF-8"?><svg xmlns="http://www.w3.org/2000/svg" viewBox="0 0 509.01 716.99"><defs><style>.d{letter-spacing:0em;}.d,.e,.f,.g,.h,.i,.j,.k,.l,.m,.n,.o,.p,.q,.r,.s,.t,.u,.v{font-family:Bronova-Bold, Bronova;}.e{font-size:28.31px;}.w{font-size:18.98px;}.w,.x,.g,.y,.a`,.aa,.ab,.ac,.ad,.ae,.af,.ag,.ah{fill:#fff;}.w,.ai,.aj,.ak,.al,.a`,.am,.aa,.an,.ao,.ap,.aq,.ac,.ar,.as,.ad,.at,.ae,.af,.au,.av,.aw,.ax,.ay,.b`,.ba,.ag,.ah{font-family:Bronova-Regular, Bronova;}.f{font-size:31.83px;letter-spacing:.1em;}.ai,.s{font-size:19.31px;}.g{font-size:16.41px;letter-spacing:.1em;}.h{letter-spacing:0em;}.h,.an{font-size:26.25px;}.i{font-size:27.42px;}.aj{font-size:15.92px;}.j{font-size:26.18px;}.ak,.o{font-size:19.59px;}.y{font-size:20.81px;}.al,.p{font-size:25.54px;}.a`{font-size:20.36px;letter-spacing:.1em;}.bb{letter-spacing:.1em;}.k,.m,.as,.av{font-size:29px;}.aa{font-size:27.89px;}.ab{font-size:20.69px;}.l{font-size:21.83px;}.m,.as{letter-spacing:0em;}.an{letter-spacing:0em;}.ao{font-size:16.15px;}.ap{letter-spacing:0em;}.ap,.b`{font-size:21.05px;}.n{font-size:28.59px;}.aq{font-size:21.29px;letter-spacing:0em;}.ac{font-size:22.95px;}.ar,.v{font-size:26.05px;}.ad{font-size:16.13px;}.at{font-size:23.95px;}.ae{font-size:18.15px;}.af{font-size:17px;}.au{font-size:15.35px;}.q{letter-spacing:0em;}.q,.ax{font-size:28.01px;}.r,.ba{font-size:23.11px;}.aw{font-size:29.87px;letter-spacing:.1em;}.ay{font-size:19.41px;}.ag{font-size:18.13px;}.u{font-size:27.04px;}.v{letter-spacing:0em;}.ah{font-size:18px;letter-spacing:.1em;}</style></defs><g id="a"/><g id="b"><g id="c"><text class="ah" transform="translate(188.79 15.3)"><tspan x="0" y="0">Biais </tspan></text><text class="g" transform="translate(174.14 33.87)"><tspan x="0" y="0">raciste : </tspan></text><text class="x" transform="translate(171.87 65.21)"><tspan class="f" x="0" y="0">+ 4%</tspan><tspan class="aw" x="90.44" y="0"> </tspan></text><text class="a`" transform="translate(154.3 90.32)"><tspan x="0" y="0">de photos </tspan></text><text class="w" transform="translate(128.14 111.61)"><tspan class="bb" x="0" y="0">de </tspan><tspan x="36.02" y="0">personnes blanches</tspan></text><text class="x" transform="translate(98.88 141.11)"><tspan class="al" x="0" y="0">Biais de </tspan><tspan class="p" x="110.82" y="0">genre</tspan><tspan class="al" x="186.77" y="0" xml:space="preserve"> : </tspan><tspan class="k" x="207.87" y="0">+ 8%</tspan><tspan class="as" x="281.44" y="0"> </tspan><tspan class="al" x="290.14" y="0"> </tspan></text><text class="ag" transform="translate(87.56 163.66)"><tspan x="0" y="0">de photos montrant des femmes </tspan></text><text class="x" transform="translate(80.27 187.97)"><tspan class="ba" x="0" y="0">Diminution des </tspan><tspan class="r" x="184.79" y="0">liens externes</tspan><tspan class="l" x="353.24" y="0"> </tspan></text><text class="x" transform="translate(63.6 218.43)"><tspan class="k" x="0" y="0">-33%</tspan><tspan class="at" x="79.17" y="0"> </tspan><tspan class="aq" x="86.35" y="0">de tweets qui en contiennent</tspan></text><text class="y" transform="translate(43.57 243.27)"><tspan class="am" x="0" y="0">Mise en avant de tweets plus </tspan><tspan class="d" x="316.44" y="0">populaires</tspan></text><text class="x" transform="translate(13.61 273.2)"><tspan class="b`" x="0" y="0">médiane du nombre de likes</tspan><tspan class="m" x="309.27" y="0" xml:space="preserve"> 16</tspan><tspan class="av" x="347.29" y="0"> </tspan><tspan class="ap" x="355.99" y="0">fois + haute</tspan></text><text class="x" transform="translate(0 303.34)"><tspan class="ai" x="0" y="0">Mise en avant de tweets</tspan><tspan class="s" x="241.06" y="0"> </tspan><tspan class="u" x="246.85" y="0">2 h 05 min</tspan><tspan class="ai" x="396.47" y="0" xml:space="preserve"> plus </tspan><tspan class="s" x="448.94" y="0">vieux </tspan></text><text class="ac" transform="translate(20 329.55)"><tspan x="0" y="0">que ceux de la timeline chronologique</tspan></text><text class="x" transform="translate(11.82 358.6)"><tspan class="o" x="0" y="0">Chambre d’écho</tspan><tspan class="ak" x="170.42" y="0" xml:space="preserve">  : </tspan><tspan class="i" x="192.47" y="0">+2%</tspan><tspan class="o" x="251.06" y="0"> </tspan><tspan class="ak" x="256.94" y="0">de tweets politiques</tspan></text><text class="x" transform="translate(21.81 389.21)"><tspan class="aj" x="0" y="0">sur le Covid, mais</tspan><tspan class="ax" x="143.38" y="0"> </tspan><tspan class="q" x="151.79" y="0">-10%</tspan><tspan class="ax" x="218.31" y="0"> </tspan><tspan class="aj" x="226.72" y="0">des informations de santé </tspan></text><text class="af" transform="translate(53.54 410.58)"><tspan x="0" y="0">Chambre d’écho : pour un compte à gauche,</tspan></text><text class="x" transform="translate(66.48 439.04)"><tspan class="e" x="0" y="0">+ 21%</tspan><tspan class="h" x="78.44" y="0"> </tspan><tspan class="an" x="86.31" y="0">de tweets de gauche </tspan></text><text class="x" transform="translate(88.41 468.18)"><tspan class="ay" x="0" y="0">et </tspan><tspan class="v" x="25.33" y="0">- 21%</tspan><tspan class="ar" x="94.07" y="0"> </tspan><tspan class="ay" x="101.89" y="0">de tweets bipartisans</tspan></text><text class="ab" transform="translate(92.01 492.25)"><tspan class="t" x="0" y="0">Diversification</tspan><tspan class="am" x="157.11" y="0" xml:space="preserve"> des sources :</tspan></text><text class="x" transform="translate(93.63 521.81)"><tspan class="n" x="0" y="0">55%</tspan><tspan class="ao" x="61.85" y="0" xml:space="preserve"> des tweets ne viennent pas </tspan></text><text class="aa" transform="translate(126.83 552.58)"><tspan x="0" y="0">d’abonnements</tspan></text><text class="ae" transform="translate(128.99 574.88)"><tspan x="0" y="0">Atténuation de l’activité : </tspan></text><text class="x" transform="translate(136.37 601.79)"><tspan class="j" x="0" y="0">-28% </tspan><tspan class="au" x="79.58" y="0">de présence des </tspan><tspan class="au"><tspan x="16.75" y="18.42">comptes les plus actifs</tspan></tspan></text><text class="ad" transform="translate(149.64 637.93)"><tspan x="0" y="0">Impossible de voir plus</tspan></text><text class="af" transform="translate(168.07 656.58)"><tspan x="0" y="0">de tweet d’un type</tspan></text><text class="af" transform="translate(189.83 675.43)"><tspan x="0" y="0">sans en voir </tspan></text><text class="af" transform="translate(198.52 694.28)"><tspan x="0" y="0">moins d’un </tspan></text><text class="af" transform="translate(206.45 713.13)"><tspan x="0" y="0">autre</tspan></text></g></g></svg>